# xmcd
#
# Track frame offsets: 
#        150
#        15162
#        28725
#        42372
#        66422
#        77692
#        95595
#        113310
#        134082
#        147922
#        157540
#        174237
#
# Disc length: 2570 seconds
#
# Revision: 4
# Processed by: cddbd v1.5PL3 Copyright (c) Steve Scherf et al.
# Submitted via: ExactAudioCopy v0.90b4
#
DISCID=8d0a080c
DTITLE=[Lowbudget] Blues Band - [Lowbudget] Blues Band
DYEAR=1990
DGENRE=Blues
TTITLE0=I'm ready
TTITLE1=Can I get a witness
TTITLE2=The devil's right hand
TTITLE3=Everybody wants to go to heaven
TTITLE4=My babe
TTITLE5=The usual
TTITLE6=Walking the dog
TTITLE7=Need your love so bad (duet with Sanne Salomonsen)
TTITLE8=Born under a bad sign
TTITLE9=I wish you would
TTITLE10=I'd rather be blind
TTITLE11=I'll play the blues for you
EXTD=
EXTT0=
EXTT1=
EXTT2=
EXTT3=
EXTT4=
EXTT5=
EXTT6=
EXTT7=
EXTT8=
EXTT9=
EXTT10=
EXTT11=
PLAYORDER=
